
<svg width="19px" height="13px" viewBox="0 0 19 13" version="1.1" xmlns="https://www.w3.org/2000/svg" xmlns:xlink="https://www.w3.org/1999/xlink">
    <g>
        <path fill="#a0a0a0" d="M12,10.1910525 C12,11.6162309 10.8446647,12.7715662 9.41948628,12.7715662 C7.99430791,12.7715662 6.83897257,11.6162309 6.83897257,10.1910525 C6.83897257,8.76587415 7.99430791,7.6105388 9.41948628,7.6105388 C10.8446647,7.6105388 12,8.76587415 12,10.1910525 Z M18.8389726,10.1910525 C18.8389726,11.6162309 17.6836372,12.7715662 16.2584588,12.7715662 C14.8332805,12.7715662 13.6779451,11.6162309 13.6779451,10.1910525 C13.6779451,8.76587415 14.8332805,7.6105388 16.2584588,7.6105388 C17.6836372,7.6105388 18.8389726,8.76587415 18.8389726,10.1910525 Z M5.16102743,3.35207996 C5.16102743,4.77725833 4.00569209,5.93259367 2.58051372,5.93259367 C1.15533534,5.93259367 7.07438866e-17,4.77725833 1.58010893e-16,3.35207996 C2.452779e-16,1.92690158 1.15533534,0.771566239 2.58051372,0.771566239 C4.00569209,0.771566239 5.16102743,1.92690158 5.16102743,3.35207996 Z M12,3.35207996 C12,4.77725833 10.8446647,5.93259367 9.41948628,5.93259367 C7.99430791,5.93259367 6.83897257,4.77725833 6.83897257,3.35207996 C6.83897257,1.92690158 7.99430791,0.771566239 9.41948628,0.771566239 C10.8446647,0.771566239 12,1.92690158 12,3.35207996 Z M18.8389726,3.35207996 C18.8389726,4.77725833 17.6836372,5.93259367 16.2584588,5.93259367 C14.8332805,5.93259367 13.6779451,4.77725833 13.6779451,3.35207996 C13.6779451,1.92690158 14.8332805,0.771566239 16.2584588,0.771566239 C17.6836372,0.771566239 18.8389726,1.92690158 18.8389726,3.35207996 Z"></path>
    </g>
</svg>