
<svg width="5px" height="16px" viewBox="0 0 5 16" version="1.1" xmlns="http://www.w3.org/2000/svg" xmlns:xlink="http://www.w3.org/1999/xlink">
    <!-- Generator: Sketch 48.2 (47327) - https://www.bohemiancoding.com/sketch -->
    <desc>Created with Sketch.</desc>
    <defs></defs>
    <g id="Page-1" stroke="none" stroke-width="1" fill="none" fill-rule="evenodd">
        <g id="ellipsis-v" fill="#67AFB8" fill-rule="nonzero">
            <path d="M2.32258065,5.67741935 C3.60645161,5.67741935 4.64516129,6.71612903 4.64516129,8 C4.64516129,9.28387097 3.60645161,10.3225806 2.32258065,10.3225806 C1.03870968,10.3225806 0,9.28387097 0,8 C0,6.71612903 1.03870968,5.67741935 2.32258065,5.67741935 Z M0,2.32258065 C0,3.60645161 1.03870968,4.64516129 2.32258065,4.64516129 C3.60645161,4.64516129 4.64516129,3.60645161 4.64516129,2.32258065 C4.64516129,1.03870968 3.60645161,0 2.32258065,0 C1.03870968,0 0,1.03870968 0,2.32258065 Z M0,13.6774194 C0,14.9612903 1.03870968,16 2.32258065,16 C3.60645161,16 4.64516129,14.9612903 4.64516129,13.6774194 C4.64516129,12.3935484 3.60645161,11.3548387 2.32258065,11.3548387 C1.03870968,11.3548387 0,12.3935484 0,13.6774194 Z" id="Shape"></path>
        </g>
    </g>
</svg>