
<svg width="175px" height="17px" viewBox="0 0 175 17" version="1.1" xmlns="http://www.w3.org/2000/svg" xmlns:xlink="http://www.w3.org/1999/xlink">
    <!-- Generator: Sketch 48.2 (47327) - http://www.bohemiancoding.com/sketch -->
    <desc>Created with Sketch.</desc>
    <defs></defs>
    <g id="Page-1" stroke="none" stroke-width="1" fill="none" fill-rule="evenodd">
        <g id="cd-nav-icons-dark" transform="translate(0.000000, -1.000000)" fill="#FAFAFA" fill-rule="nonzero">
            <g id="Group" transform="translate(47.000000, 2.000000)">
                <g id="cogs" transform="translate(0.000000, 0.244930)">
                    <path d="M13.6990791,5.67096314 L13.494399,6.02790541 C13.419516,6.16019871 13.2597656,6.2151129 13.1174879,6.16269481 C12.8229481,6.05286641 12.5533693,5.89561212 12.3162398,5.69842024 C12.2014192,5.60356844 12.171466,5.43632975 12.246349,5.30653256 L12.4510292,4.94959028 C12.2787983,4.74990229 12.1440089,4.51776501 12.0541493,4.26565893 L11.6422929,4.26565893 C11.4925269,4.26565893 11.3627297,4.15832663 11.3377687,4.00856064 C11.2878467,3.70902866 11.2853506,3.39452008 11.3377687,3.0825076 C11.3627297,2.93274161 11.4925269,2.82291322 11.6422929,2.82291322 L12.0541493,2.82291322 C12.1440089,2.57080713 12.2787983,2.33866985 12.4510292,2.13898186 L12.246349,1.78203958 C12.171466,1.65224239 12.1989231,1.4850037 12.3162398,1.3901519 C12.5533693,1.19296002 12.8254442,1.03570573 13.1174879,0.925877334 C13.2597656,0.873459237 13.419516,0.928373434 13.494399,1.06066673 L13.6990791,1.417609 C13.9611696,1.37018311 14.2282523,1.37018311 14.4903428,1.417609 L14.695023,1.06066673 C14.769906,0.928373434 14.9296564,0.873459237 15.0719341,0.925877334 C15.3664738,1.03570573 15.6360526,1.19296002 15.8731821,1.3901519 C15.9880027,1.4850037 16.0179559,1.65224239 15.9430729,1.78203958 L15.7383927,2.13898186 C15.9106236,2.33866985 16.045413,2.57080713 16.1352726,2.82291322 L16.5471291,2.82291322 C16.6968951,2.82291322 16.8266923,2.93024551 16.8516532,3.0800115 C16.9015752,3.37954348 16.9040713,3.69405206 16.8516532,4.00606454 C16.8266923,4.15583053 16.6968951,4.26565893 16.5471291,4.26565893 L16.1352726,4.26565893 C16.045413,4.51776501 15.9106236,4.74990229 15.7383927,4.94959028 L15.9430729,5.30653256 C16.0179559,5.43632975 15.9904988,5.60356844 15.8731821,5.69842024 C15.6360526,5.89561212 15.3639777,6.05286641 15.0719341,6.16269481 C14.9296564,6.2151129 14.769906,6.16019871 14.695023,6.02790541 L14.4903428,5.67096314 C14.2307484,5.71838903 13.9611696,5.71838903 13.6990791,5.67096314 Z M13.4369887,4.20325643 C14.3979871,4.94210198 15.4937749,3.84631415 14.7549294,2.88531571 C13.7939309,2.14397406 12.6981431,3.24225799 13.4369887,4.20325643 Z M10.5589855,8.04475409 L11.4001712,8.46409886 C11.6522773,8.60887265 11.7621057,8.91589293 11.6622617,9.19046392 C11.4401088,9.79452008 11.0032913,10.3486542 10.5989231,10.8328976 C10.4142118,11.0550505 10.094711,11.1099647 9.84260489,10.9651909 L9.11623983,10.5458461 C8.71686386,10.8878118 8.25258929,11.1598867 7.74588102,11.3371098 L7.74588102,12.1757993 C7.74588102,12.4653469 7.53870473,12.7149569 7.25414935,12.7648789 C6.64010879,12.8697151 5.99611503,12.8747073 5.35960957,12.7648789 C5.07255809,12.7149569 4.8603896,12.467843 4.8603896,12.1757993 L4.8603896,11.3371098 C4.35368133,11.1573906 3.88940676,10.8878118 3.49003078,10.5458461 L2.76366573,10.9626948 C2.51405575,11.1074686 2.19205887,11.0525544 2.00734748,10.8304015 C1.6029793,10.3461581 1.17614623,9.79202398 0.953993343,9.19046392 C0.854149349,8.91838903 0.963977742,8.61136875 1.21608383,8.46409886 L2.04728507,8.04475409 C1.94993718,7.52306922 1.94993718,6.98640776 2.04728507,6.46222679 L1.21608383,6.04038591 C0.963977742,5.89561212 0.851653249,5.58859184 0.953993343,5.31651696 C1.17614623,4.7124608 1.6029793,4.15832663 2.00734748,3.67408326 C2.19205887,3.45193038 2.51155965,3.39701618 2.76366573,3.54178997 L3.49003078,3.96113474 C3.88940676,3.61916907 4.35368133,3.34709418 4.8603896,3.16987109 L4.8603896,2.32868545 C4.8603896,2.04163396 5.06506979,1.79202398 5.34962517,1.74210198 C5.96366573,1.63726579 6.61015559,1.63227359 7.24666105,1.73960588 C7.53371253,1.78952788 7.74588102,2.03664176 7.74588102,2.32868545 L7.74588102,3.16737499 C8.25258929,3.34709418 8.71686386,3.61667297 9.11623983,3.95863864 L9.84260489,3.53929387 C10.0922149,3.39452008 10.4142118,3.44943428 10.5989231,3.67158716 C11.0032913,4.15583053 11.4276283,4.7099647 11.6497812,5.31402086 C11.7496252,5.58609574 11.6522773,5.89311602 11.4001712,6.04038591 L10.5589855,6.45973069 C10.6563334,6.98391166 10.6563334,7.52057312 10.5589855,8.04475409 Z M7.62357213,8.57143116 C9.10126323,6.64943428 6.90719147,4.45536251 4.98519459,5.93305362 C3.50750348,7.8550505 5.70157525,10.0491223 7.62357213,8.57143116 Z M13.6990791,13.1318056 L13.494399,13.4887478 C13.419516,13.6210411 13.2597656,13.6759553 13.1174879,13.6235372 C12.8229481,13.5137088 12.5533693,13.3564546 12.3162398,13.1592627 C12.2014192,13.0644109 12.171466,12.8971722 12.246349,12.767375 L12.4510292,12.4104327 C12.2787983,12.2107447 12.1440089,11.9786074 12.0541493,11.7265014 L11.6422929,11.7265014 C11.4925269,11.7265014 11.3627297,11.6191691 11.3377687,11.4694031 C11.2878467,11.1698711 11.2853506,10.8553625 11.3377687,10.54335 C11.3627297,10.393584 11.4925269,10.2837556 11.6422929,10.2837556 L12.0541493,10.2837556 C12.1440089,10.0316496 12.2787983,9.79951228 12.4510292,9.59982429 L12.246349,9.24288201 C12.171466,9.11308482 12.1989231,8.94584613 12.3162398,8.85099434 C12.5533693,8.65380245 12.8254442,8.49654816 13.1174879,8.38671977 C13.2597656,8.33430167 13.419516,8.38921587 13.494399,8.52150916 L13.6990791,8.87845144 C13.9611696,8.83102554 14.2282523,8.83102554 14.4903428,8.87845144 L14.695023,8.52150916 C14.769906,8.38921587 14.9296564,8.33430167 15.0719341,8.38671977 C15.3664738,8.49654816 15.6360526,8.65380245 15.8731821,8.85099434 C15.9880027,8.94584613 16.0179559,9.11308482 15.9430729,9.24288201 L15.7383927,9.59982429 C15.9106236,9.79951228 16.045413,10.0316496 16.1352726,10.2837556 L16.5471291,10.2837556 C16.6968951,10.2837556 16.8266923,10.3910879 16.8516532,10.5408539 C16.9015752,10.8403859 16.9040713,11.1548945 16.8516532,11.466907 C16.8266923,11.616673 16.6968951,11.7265014 16.5471291,11.7265014 L16.1352726,11.7265014 C16.045413,11.9786074 15.9106236,12.2107447 15.7383927,12.4104327 L15.9430729,12.767375 C16.0179559,12.8971722 15.9904988,13.0644109 15.8731821,13.1592627 C15.6360526,13.3564546 15.3639777,13.5137088 15.0719341,13.6235372 C14.9296564,13.6759553 14.769906,13.6210411 14.695023,13.4887478 L14.4903428,13.1318056 C14.2307484,13.1792315 13.9611696,13.1792315 13.6990791,13.1318056 Z M13.4369887,11.6616028 C14.3979871,12.4004483 15.4937749,11.3046605 14.7549294,10.343662 C13.7939309,9.60481649 12.6981431,10.7006043 13.4369887,11.6616028 Z" id="Shape"></path>
                </g>
            </g>
            <g id="th-large" transform="translate(0.000000, 2.000000)">
                <path d="M9.25,0 L15.25,0 C15.6642187,0 16,0.38375 16,0.857142857 L16,6.57142857 C16,7.04482143 15.6642187,7.42857143 15.25,7.42857143 L9.25,7.42857143 C8.83578125,7.42857143 8.5,7.04482143 8.5,6.57142857 L8.5,0.857142857 C8.5,0.38375 8.83578125,0 9.25,0 Z M6.75,0 L0.75,0 C0.33578125,0 0,0.38375 0,0.857142857 L0,6.57142857 C0,7.04482143 0.33578125,7.42857143 0.75,7.42857143 L6.75,7.42857143 C7.16421875,7.42857143 7.5,7.04482143 7.5,6.57142857 L7.5,0.857142857 C7.5,0.38375 7.16421875,0 6.75,0 Z M0,9.42857143 L0,15.1428571 C0,15.61625 0.33578125,16 0.75,16 L6.75,16 C7.16421875,16 7.5,15.61625 7.5,15.1428571 L7.5,9.42857143 C7.5,8.95517857 7.16421875,8.57142857 6.75,8.57142857 L0.75,8.57142857 C0.33578125,8.57142857 0,8.95517857 0,9.42857143 Z M9.25,16 L15.25,16 C15.6642187,16 16,15.61625 16,15.1428571 L16,9.42857143 C16,8.95517857 15.6642187,8.57142857 15.25,8.57142857 L9.25,8.57142857 C8.83578125,8.57142857 8.5,8.95517857 8.5,9.42857143 L8.5,15.1428571 C8.5,15.61625 8.83578125,16 9.25,16 Z" id="Shape"></path>
            </g>
            <g id="Group" transform="translate(64.000000, 2.000000)">
                <path d="M2.10261111,12.4444444 C1.60832689,12.4444287 1.15457427,12.1710846 0.9235,11.7341389 C0.333972222,10.6194444 0,9.34877778 0,8 C0,3.58172222 3.58172222,0 8,0 C12.4182778,0 16,3.58172222 16,8 C16,9.34877778 15.6660278,10.6194444 15.0765,11.7341389 C14.8454351,12.1710935 14.3916766,12.4444411 13.8973889,12.4444444 L2.10261111,12.4444444 Z M14.2222222,7.11111111 C13.7313056,7.11111111 13.3333333,7.50908333 13.3333333,8 C13.3333333,8.49091667 13.7313056,8.88888889 14.2222222,8.88888889 C14.7131389,8.88888889 15.1111111,8.49091667 15.1111111,8 C15.1111111,7.50908333 14.7131389,7.11111111 14.2222222,7.11111111 Z M8,2.66666667 C8.49091667,2.66666667 8.88888889,2.26869444 8.88888889,1.77777778 C8.88888889,1.28686111 8.49091667,0.888888889 8,0.888888889 C7.50908333,0.888888889 7.11111111,1.28686111 7.11111111,1.77777778 C7.11111111,2.26869444 7.50908333,2.66666667 8,2.66666667 Z M1.77777778,7.11111111 C1.28686111,7.11111111 0.888888889,7.50908333 0.888888889,8 C0.888888889,8.49091667 1.28686111,8.88888889 1.77777778,8.88888889 C2.26869444,8.88888889 2.66666667,8.49091667 2.66666667,8 C2.66666667,7.50908333 2.26869444,7.11111111 1.77777778,7.11111111 Z M3.60022222,2.71133333 C3.10930556,2.71133333 2.71133333,3.10930556 2.71133333,3.60022222 C2.71133333,4.09113889 3.10930556,4.48911111 3.60022222,4.48911111 C4.09113889,4.48911111 4.48911111,4.09113889 4.48911111,3.60022222 C4.48911111,3.10930556 4.09113889,2.71133333 3.60022222,2.71133333 Z M12.3997778,2.71133333 C11.9088611,2.71133333 11.5108889,3.10930556 11.5108889,3.60022222 C11.5108889,4.09113889 11.9088611,4.48911111 12.3997778,4.48911111 C12.8906944,4.48911111 13.2886667,4.09113889 13.2886667,3.60022222 C13.2886667,3.10930556 12.8906944,2.71133333 12.3997778,2.71133333 Z M9.98094444,3.58727778 C9.63019444,3.47505556 9.25502778,3.66838889 9.14280556,4.01905556 L7.86716667,8.00547222 C6.94744444,8.07347222 6.22222222,8.84066667 6.22222222,9.77777778 C6.22222222,10.7596111 7.01816667,11.5555556 8,11.5555556 C8.98183333,11.5555556 9.77777778,10.7596111 9.77777778,9.77777778 C9.77777778,9.22852778 9.52858333,8.73758333 9.13719444,8.41147222 L10.4127222,4.42541667 C10.5249167,4.07472222 10.3316111,3.6995 9.98094444,3.58727778 Z" id="Shape"></path>
            </g>
            <g id="file" transform="translate(82.086957, 0.500000)">
                <path d="M6.62645283,4.58937803 L6.62645283,0.647349043 L0.829351383,0.647349043 C0.443844137,0.647349043 0.133699209,0.95749397 0.133699209,1.34300122 L0.133699209,14.7922766 C0.133699209,15.1777838 0.443844137,15.4879288 0.829351383,15.4879288 L10.5684818,15.4879288 C10.9539891,15.4879288 11.264134,15.1777838 11.264134,14.7922766 L11.264134,5.2850302 L7.32210501,5.2850302 C6.93949631,5.2850302 6.62645283,4.97198672 6.62645283,4.58937803 Z M11.264134,4.18068238 L11.264134,4.35749397 L7.55398906,4.35749397 L7.55398906,0.647349043 L7.73080066,0.647349043 C7.9163079,0.647349043 8.0931195,0.719812811 8.22355428,0.850247594 L11.0612354,3.6908273 C11.1916702,3.82126209 11.264134,3.99807368 11.264134,4.18068238 Z" id="Shape"></path>
            </g>
            <g id="users" transform="translate(32.383049, 5.500000)">
                <path d="M7.67197239,0.296985014 C8.93422768,0.296985014 9.95748379,1.32024112 9.95748379,2.58249641 C9.95748379,3.84475171 8.93422768,4.86800781 7.67197239,4.86800781 C6.40971709,4.86800781 5.38646099,3.84475171 5.38646099,2.58249641 C5.38646099,1.32024112 6.40971709,0.296985014 7.67197239,0.296985014 Z M10.141696,5.02834188 L9.2714168,4.81076119 C8.201188,5.5805432 6.90393173,5.40875981 6.07254975,4.81076119 L5.20227054,5.02834188 C4.50458009,5.20275905 4.01515415,5.82959864 4.01515415,6.54875113 L4.01515415,7.87182279 C4.01515415,8.30458982 4.36599103,8.6554267 4.79875806,8.6554267 L10.5451867,8.6554267 C10.9779537,8.6554267 11.3287906,8.30458982 11.3287906,7.87182279 L11.3287906,6.54875113 C11.3287906,5.82959864 10.8393647,5.20275905 10.141696,5.02834188 Z M12.1994616,5.43394397 C13.0409652,5.43394397 13.7231359,4.75177323 13.7231359,3.9102697 C13.7231359,3.06876617 13.0409652,2.38659544 12.1994616,2.38659544 C11.3579581,2.38659544 10.6757874,3.06876617 10.6757874,3.9102697 C10.6757874,4.75177323 11.3579581,5.43394397 12.1994616,5.43394397 Z M3.14448314,5.43394397 C3.98598667,5.43394397 4.66815741,4.75177323 4.66815741,3.9102697 C4.66815741,3.06876617 3.98598667,2.38659544 3.14448314,2.38659544 C2.30297961,2.38659544 1.62080888,3.06876617 1.62080888,3.9102697 C1.62080888,4.75177323 2.30297961,5.43394397 3.14448314,5.43394397 Z M3.66688575,7.87182279 L3.66688575,6.54875113 C3.66688575,6.18848923 3.76686055,5.8477739 3.94338909,5.55620794 C3.29064704,5.87661488 2.56476862,5.74575302 2.07819412,5.39578681 L1.49800073,5.5408406 C1.03288828,5.65709695 0.706604317,6.07501903 0.706604317,6.55443226 L0.706604317,7.43648729 C0.706604317,7.72500589 0.940488317,7.95888989 1.22900692,7.95888989 L3.67056433,7.95888989 C3.66822983,7.92992496 3.66700274,7.90088142 3.66688575,7.87182279 Z M13.845944,5.54081883 L13.2657507,5.39576504 C12.6579135,5.83297249 11.9403717,5.81440543 11.3984661,5.55287763 C11.5762571,5.84518365 11.677059,6.18709616 11.677059,6.54875113 L11.677059,7.87182279 C11.677059,7.90114264 11.6755789,7.93011422 11.6733804,7.95888989 L14.1149379,7.95888989 C14.4034565,7.95888989 14.6373405,7.72500589 14.6373405,7.43648729 L14.6373405,6.55443226 C14.6373405,6.07501903 14.3110565,5.65709695 13.845944,5.54081883 Z" id="Shape"></path>
            </g>
            <path d="M30.6330493,5 C31.3205493,5 31.8830493,5.5625 31.8830493,6.25 L31.8830493,15.75 C31.8830493,16.4375 31.3205493,17 30.6330493,17 L18.1330493,17 C17.4455493,17 16.8830493,16.4375 16.8830493,15.75 L16.8830493,6.25 C16.8830493,5.5625 17.4455493,5 18.1330493,5 L30.6330493,5 Z M18.1330493,6 C18.0002368,6 17.8830493,6.1171875 17.8830493,6.25 L17.8830493,8 L30.8830493,8 L30.8830493,6.25 C30.8830493,6.1171875 30.7658618,6 30.6330493,6 L18.1330493,6 Z M30.6330493,16 C30.7658618,16 30.8830493,15.8828125 30.8830493,15.75 L30.8830493,11 L17.8830493,11 L17.8830493,15.75 C17.8830493,15.8828125 18.0002368,16 18.1330493,16 L30.6330493,16 Z M18.8830493,15 L18.8830493,14 L20.8830493,14 L20.8830493,15 L18.8830493,15 Z M21.8830493,15 L21.8830493,14 L24.8830493,14 L24.8830493,15 L21.8830493,15 Z" id=""></path>
            <g id="user" transform="translate(96.000000, 2.000000)">
                <path d="M7.5,0 C10.0888477,0 12.1875,2.09865234 12.1875,4.6875 C12.1875,7.27634766 10.0888477,9.375 7.5,9.375 C4.91115234,9.375 2.8125,7.27634766 2.8125,4.6875 C2.8125,2.09865234 4.91115234,0 7.5,0 Z M12.8696191,9.77991211 L10.7803711,9.25760742 C8.58536133,10.836416 5.92476563,10.4840918 4.21962891,9.25760742 L2.13038086,9.77991211 C0.878349609,10.0929199 0,11.2178613 0,12.5084473 L0,13.59375 C0,14.3704102 0.629589844,15 1.40625,15 L13.59375,15 C14.3704102,15 15,14.3704102 15,13.59375 L15,12.5084473 C15,11.2178613 14.1216504,10.0929199 12.8696191,9.77991211 Z" id="Shape"></path>
            </g>
            <g id="cloud-upload-alt" transform="translate(129.500000, 3.900000)">
                <path d="M16.4931268,8.00562182 C16.4931268,9.77292182 15.0604268,11.2056218 13.2931268,11.2056218 L4.09312683,11.2056218 C2.10490183,11.2056218 0.493126825,9.59384682 0.493126825,7.60562182 C0.493126825,6.03629682 1.49740183,4.70174682 2.89822683,4.20894682 C2.89484248,4.14122454 2.89314196,4.0734286 2.89312683,4.00562182 C2.89312683,1.79647182 4.68397683,0.00562181651 6.89312683,0.00562181651 C8.37532683,0.00562181651 9.66917683,0.811821817 10.3602268,2.00959682 C10.7415018,1.75447182 11.1999018,1.60562182 11.6931268,1.60562182 C13.0186018,1.60562182 14.0931268,2.68014682 14.0931268,4.00562182 C14.0931268,4.31022182 14.0362518,4.60152182 13.9327518,4.86962182 C15.3935518,5.16597182 16.4931268,6.45737182 16.4931268,8.00562182 Z M10.6102768,5.72277182 L7.97597683,3.08847182 C7.81977683,2.93227182 7.56650183,2.93227182 7.41030183,3.08847182 L4.77597683,5.72277182 C4.52397683,5.97477182 4.70245183,6.40562182 5.05880183,6.40562182 L6.69312683,6.40562182 L6.69312683,9.20562182 C6.69312683,9.42654682 6.87222683,9.60562182 7.09312683,9.60562182 L8.29312683,9.60562182 C8.51402683,9.60562182 8.69312683,9.42654682 8.69312683,9.20562182 L8.69312683,6.40562182 L10.3274518,6.40562182 C10.6838018,6.40562182 10.8622768,5.97477182 10.6102768,5.72277182 Z" id="Shape"></path>
            </g>
            <path d="M121.450433,14.8571415 L127.164726,14.8571415 L127.164726,13.714283 L121.450433,13.714283 L121.450433,14.8571415 Z M118.021857,10.2857075 L127.164726,10.2857075 L127.164726,9.14284897 L118.021857,9.14284897 L118.021857,10.2857075 Z M123.73615,5.71427345 L127.164726,5.71427345 L127.164726,4.57141495 L123.73615,4.57141495 L123.73615,5.71427345 Z M128.307584,13.1428537 L128.307584,15.4285707 C128.307584,15.7410711 128.048655,16 127.736155,16 L112.878994,16 C112.566494,16 112.307565,15.7410711 112.307565,15.4285707 L112.307565,13.1428537 C112.307565,12.8303534 112.566494,12.5714245 112.878994,12.5714245 L127.736155,12.5714245 C128.048655,12.5714245 128.307584,12.8303534 128.307584,13.1428537 Z M128.307584,8.57141972 L128.307584,10.8571367 C128.307584,11.1696371 128.048655,11.428566 127.736155,11.428566 L112.878994,11.428566 C112.566494,11.428566 112.307565,11.1696371 112.307565,10.8571367 L112.307565,8.57141972 C112.307565,8.25891934 112.566494,7.99999046 112.878994,7.99999046 L127.736155,7.99999046 C128.048655,7.99999046 128.307584,8.25891934 128.307584,8.57141972 Z M128.307584,3.99998569 L128.307584,6.28570271 C128.307584,6.59820308 128.048655,6.85713196 127.736155,6.85713196 L112.878994,6.85713196 C112.566494,6.85713196 112.307565,6.59820308 112.307565,6.28570271 L112.307565,3.99998569 C112.307565,3.68748532 112.566494,3.42855644 112.878994,3.42855644 L127.736155,3.42855644 C128.048655,3.42855644 128.307584,3.68748532 128.307584,3.99998569 Z" id=""></path>
            <g id="plug" transform="translate(147.000000, 2.000000)">
                <path d="M7.93980156,3.96000038 L7.93980156,0.92000075 C7.93980156,0.440305095 8.32867723,0.051429429 8.80837288,0.051429429 C9.28806854,0.051429429 9.67694421,0.440305095 9.67694421,0.92000075 L9.67694421,3.96000038 L7.93980156,3.96000038 Z M10.9798012,4.39428604 L1.42551665,4.39428604 C1.18565525,4.39428604 0.991230991,4.5887103 0.991230991,4.8285717 L0.991230991,5.69714302 C0.991230991,5.93700442 1.18565525,6.13142868 1.42551665,6.13142868 L1.85980231,6.13142868 L1.85980231,7 C1.85980231,9.10101974 3.35181784,10.8534981 5.3340876,11.2558909 L5.3340876,13.9485706 L7.07123024,13.9485706 L7.07123024,11.2558909 C9.0535,10.8534981 10.5455155,9.10101974 10.5455155,7 L10.5455155,6.13142868 L10.9798012,6.13142868 C11.2196626,6.13142868 11.4140868,5.93700442 11.4140868,5.69714302 L11.4140868,4.8285717 C11.4140868,4.5887103 11.2196626,4.39428604 10.9798012,4.39428604 Z M4.46551628,3.96000038 L4.46551628,0.92000075 C4.46551628,0.440305095 4.07664061,0.051429429 3.59694496,0.051429429 C3.1172493,0.051429429 2.72837363,0.440305095 2.72837363,0.92000075 L2.72837363,3.96000038 L4.46551628,3.96000038 Z" id="Shape"></path>
            </g>
            <path d="M166.887652,2.74303155 L165.172337,6.2205992 L161.334551,6.78005683 C160.646323,6.87986618 160.370507,7.72824559 160.869603,8.2141595 L163.646154,10.919518 L162.989448,14.7411652 C162.871241,15.431951 163.598871,15.9493836 164.208294,15.6263165 L167.64155,13.8218687 L171.074806,15.6263165 C171.684228,15.946757 172.411858,15.431951 172.293651,14.7411652 L171.636945,10.919518 L174.413496,8.2141595 C174.912592,7.72824559 174.636776,6.87986618 173.948548,6.78005683 L170.110762,6.2205992 L168.395447,2.74303155 C168.088109,2.123163 167.197617,2.11528332 166.887652,2.74303155 Z" id="Mask"></path>
        </g>
    </g>
</svg>