
<svg width="175px" height="17px" viewBox="0 0 175 17" version="1.1" xmlns="http://www.w3.org/2000/svg" xmlns:xlink="http://www.w3.org/1999/xlink">
    <desc>Created with Sketch.</desc>
    <defs>
        <path d="M166.887652,1.74303155 L165.172337,5.2205992 L161.334551,5.78005683 C160.646323,5.87986618 160.370507,6.72824559 160.869603,7.2141595 L163.646154,9.91951802 L162.989448,13.7411652 C162.871241,14.431951 163.598871,14.9493836 164.208294,14.6263165 L167.64155,12.8218687 L171.074806,14.6263165 C171.684228,14.946757 172.411858,14.431951 172.293651,13.7411652 L171.636945,9.91951802 L174.413496,7.2141595 C174.912592,6.72824559 174.636776,5.87986618 173.948548,5.78005683 L170.110762,5.2205992 L168.395447,1.74303155 C168.088109,1.123163 167.197617,1.11528332 166.887652,1.74303155 Z" id="path-1"></path>
    </defs>
    <g id="Page-1" stroke="none" stroke-width="1" fill="none" fill-rule="evenodd">
        <g id="cd-nav-icons">
            <path d="M60.6990791,6.91589314 L60.494399,7.27283541 C60.419516,7.40512871 60.2597656,7.4600429 60.1174879,7.40762481 C59.8229481,7.29779641 59.5533693,7.14054212 59.3162398,6.94335024 C59.2014192,6.84849844 59.171466,6.68125975 59.246349,6.55146256 L59.4510292,6.19452028 C59.2787983,5.99483229 59.1440089,5.76269501 59.0541493,5.51058893 L58.6422929,5.51058893 C58.4925269,5.51058893 58.3627297,5.40325663 58.3377687,5.25349064 C58.2878467,4.95395866 58.2853506,4.63945008 58.3377687,4.3274376 C58.3627297,4.17767161 58.4925269,4.06784322 58.6422929,4.06784322 L59.0541493,4.06784322 C59.1440089,3.81573713 59.2787983,3.58359985 59.4510292,3.38391186 L59.246349,3.02696958 C59.171466,2.89717239 59.1989231,2.7299337 59.3162398,2.6350819 C59.5533693,2.43789002 59.8254442,2.28063573 60.1174879,2.17080733 C60.2597656,2.11838924 60.419516,2.17330343 60.494399,2.30559673 L60.6990791,2.662539 C60.9611696,2.61511311 61.2282523,2.61511311 61.4903428,2.662539 L61.695023,2.30559673 C61.769906,2.17330343 61.9296564,2.11838924 62.0719341,2.17080733 C62.3664738,2.28063573 62.6360526,2.43789002 62.8731821,2.6350819 C62.9880027,2.7299337 63.0179559,2.89717239 62.9430729,3.02696958 L62.7383927,3.38391186 C62.9106236,3.58359985 63.045413,3.81573713 63.1352726,4.06784322 L63.5471291,4.06784322 C63.6968951,4.06784322 63.8266923,4.17517551 63.8516532,4.3249415 C63.9015752,4.62447348 63.9040713,4.93898206 63.8516532,5.25099454 C63.8266923,5.40076053 63.6968951,5.51058893 63.5471291,5.51058893 L63.1352726,5.51058893 C63.045413,5.76269501 62.9106236,5.99483229 62.7383927,6.19452028 L62.9430729,6.55146256 C63.0179559,6.68125975 62.9904988,6.84849844 62.8731821,6.94335024 C62.6360526,7.14054212 62.3639777,7.29779641 62.0719341,7.40762481 C61.9296564,7.4600429 61.769906,7.40512871 61.695023,7.27283541 L61.4903428,6.91589314 C61.2307484,6.96331903 60.9611696,6.96331903 60.6990791,6.91589314 Z M60.4369887,5.44818643 C61.3979871,6.18703198 62.4937749,5.09124415 61.7549294,4.13024571 C60.7939309,3.38890406 59.6981431,4.48718799 60.4369887,5.44818643 Z M57.5589855,9.28968409 L58.4001712,9.70902886 C58.6522773,9.85380265 58.7621057,10.1608229 58.6622617,10.4353939 C58.4401088,11.0394501 58.0032913,11.5935842 57.5989231,12.0778276 C57.4142118,12.2999805 57.094711,12.3548947 56.8426049,12.2101209 L56.1162398,11.7907761 C55.7168639,12.1327418 55.2525893,12.4048167 54.745881,12.5820398 L54.745881,13.4207293 C54.745881,13.7102769 54.5387047,13.9598869 54.2541494,14.0098089 C53.6401088,14.1146451 52.996115,14.1196373 52.3596096,14.0098089 C52.0725581,13.9598869 51.8603896,13.712773 51.8603896,13.4207293 L51.8603896,12.5820398 C51.3536813,12.4023206 50.8894068,12.1327418 50.4900308,11.7907761 L49.7636657,12.2076248 C49.5140557,12.3523986 49.1920589,12.2974844 49.0073475,12.0753315 C48.6029793,11.5910881 48.1761462,11.036954 47.9539933,10.4353939 C47.8541493,10.163319 47.9639777,9.85629875 48.2160838,9.70902886 L49.0472851,9.28968409 C48.9499372,8.76799922 48.9499372,8.23133776 49.0472851,7.70715679 L48.2160838,7.28531591 C47.9639777,7.14054212 47.8516532,6.83352184 47.9539933,6.56144696 C48.1761462,5.9573908 48.6029793,5.40325663 49.0073475,4.91901326 C49.1920589,4.69686038 49.5115597,4.64194618 49.7636657,4.78671997 L50.4900308,5.20606474 C50.8894068,4.86409907 51.3536813,4.59202418 51.8603896,4.41480109 L51.8603896,3.57361545 C51.8603896,3.28656396 52.0650698,3.03695398 52.3496252,2.98703198 C52.9636657,2.88219579 53.6101556,2.87720359 54.2466611,2.98453588 C54.5337125,3.03445788 54.745881,3.28157176 54.745881,3.57361545 L54.745881,4.41230499 C55.2525893,4.59202418 55.7168639,4.86160297 56.1162398,5.20356864 L56.8426049,4.78422387 C57.0922149,4.63945008 57.4142118,4.69436428 57.5989231,4.91651716 C58.0032913,5.40076053 58.4276283,5.9548947 58.6497812,6.55895086 C58.7496252,6.83102574 58.6522773,7.13804602 58.4001712,7.28531591 L57.5589855,7.70466069 C57.6563334,8.22884166 57.6563334,8.76550312 57.5589855,9.28968409 Z M54.6235721,9.81636116 C56.1012632,7.89436428 53.9071915,5.70029251 51.9851946,7.17798362 C50.5075035,9.0999805 52.7015753,11.2940523 54.6235721,9.81636116 Z M60.6990791,14.3767356 L60.494399,14.7336778 C60.419516,14.8659711 60.2597656,14.9208853 60.1174879,14.8684672 C59.8229481,14.7586388 59.5533693,14.6013846 59.3162398,14.4041927 C59.2014192,14.3093409 59.171466,14.1421022 59.246349,14.012305 L59.4510292,13.6553627 C59.2787983,13.4556747 59.1440089,13.2235374 59.0541493,12.9714314 L58.6422929,12.9714314 C58.4925269,12.9714314 58.3627297,12.8640991 58.3377687,12.7143331 C58.2878467,12.4148011 58.2853506,12.1002925 58.3377687,11.78828 C58.3627297,11.638514 58.4925269,11.5286856 58.6422929,11.5286856 L59.0541493,11.5286856 C59.1440089,11.2765796 59.2787983,11.0444423 59.4510292,10.8447543 L59.246349,10.487812 C59.171466,10.3580148 59.1989231,10.1907761 59.3162398,10.0959243 C59.5533693,9.89873245 59.8254442,9.74147816 60.1174879,9.63164977 C60.2597656,9.57923167 60.419516,9.63414587 60.494399,9.76643916 L60.6990791,10.1233814 C60.9611696,10.0759555 61.2282523,10.0759555 61.4903428,10.1233814 L61.695023,9.76643916 C61.769906,9.63414587 61.9296564,9.57923167 62.0719341,9.63164977 C62.3664738,9.74147816 62.6360526,9.89873245 62.8731821,10.0959243 C62.9880027,10.1907761 63.0179559,10.3580148 62.9430729,10.487812 L62.7383927,10.8447543 C62.9106236,11.0444423 63.045413,11.2765796 63.1352726,11.5286856 L63.5471291,11.5286856 C63.6968951,11.5286856 63.8266923,11.6360179 63.8516532,11.7857839 C63.9015752,12.0853159 63.9040713,12.3998245 63.8516532,12.711837 C63.8266923,12.861603 63.6968951,12.9714314 63.5471291,12.9714314 L63.1352726,12.9714314 C63.045413,13.2235374 62.9106236,13.4556747 62.7383927,13.6553627 L62.9430729,14.012305 C63.0179559,14.1421022 62.9904988,14.3093409 62.8731821,14.4041927 C62.6360526,14.6013846 62.3639777,14.7586388 62.0719341,14.8684672 C61.9296564,14.9208853 61.769906,14.8659711 61.695023,14.7336778 L61.4903428,14.3767356 C61.2307484,14.4241615 60.9611696,14.4241615 60.6990791,14.3767356 Z M60.4369887,12.9065328 C61.3979871,13.6453783 62.4937749,12.5495905 61.7549294,11.588592 C60.7939309,10.8497465 59.6981431,11.9455343 60.4369887,12.9065328 Z" id="Shape" fill="#A0A0A0" fill-rule="nonzero"></path>
            <path d="M9.25,1 L15.25,1 C15.6642187,1 16,1.38375 16,1.85714286 L16,7.57142857 C16,8.04482143 15.6642187,8.42857143 15.25,8.42857143 L9.25,8.42857143 C8.83578125,8.42857143 8.5,8.04482143 8.5,7.57142857 L8.5,1.85714286 C8.5,1.38375 8.83578125,1 9.25,1 Z M6.75,1 L0.75,1 C0.33578125,1 0,1.38375 0,1.85714286 L0,7.57142857 C0,8.04482143 0.33578125,8.42857143 0.75,8.42857143 L6.75,8.42857143 C7.16421875,8.42857143 7.5,8.04482143 7.5,7.57142857 L7.5,1.85714286 C7.5,1.38375 7.16421875,1 6.75,1 Z M0,10.4285714 L0,16.1428571 C0,16.61625 0.33578125,17 0.75,17 L6.75,17 C7.16421875,17 7.5,16.61625 7.5,16.1428571 L7.5,10.4285714 C7.5,9.95517857 7.16421875,9.57142857 6.75,9.57142857 L0.75,9.57142857 C0.33578125,9.57142857 0,9.95517857 0,10.4285714 Z M9.25,17 L15.25,17 C15.6642187,17 16,16.61625 16,16.1428571 L16,10.4285714 C16,9.95517857 15.6642187,9.57142857 15.25,9.57142857 L9.25,9.57142857 C8.83578125,9.57142857 8.5,9.95517857 8.5,10.4285714 L8.5,16.1428571 C8.5,16.61625 8.83578125,17 9.25,17 Z" id="Shape" fill="#A0A0A0" fill-rule="nonzero"></path>
            <path d="M66.1026111,13.4444444 C65.6083269,13.4444287 65.1545743,13.1710846 64.9235,12.7341389 C64.3339722,11.6194444 64,10.3487778 64,9 C64,4.58172222 67.5817222,1 72,1 C76.4182778,1 80,4.58172222 80,9 C80,10.3487778 79.6660278,11.6194444 79.0765,12.7341389 C78.8454351,13.1710935 78.3916766,13.4444411 77.8973889,13.4444444 L66.1026111,13.4444444 Z M78.2222222,8.11111111 C77.7313056,8.11111111 77.3333333,8.50908333 77.3333333,9 C77.3333333,9.49091667 77.7313056,9.88888889 78.2222222,9.88888889 C78.7131389,9.88888889 79.1111111,9.49091667 79.1111111,9 C79.1111111,8.50908333 78.7131389,8.11111111 78.2222222,8.11111111 Z M72,3.66666667 C72.4909167,3.66666667 72.8888889,3.26869444 72.8888889,2.77777778 C72.8888889,2.28686111 72.4909167,1.88888889 72,1.88888889 C71.5090833,1.88888889 71.1111111,2.28686111 71.1111111,2.77777778 C71.1111111,3.26869444 71.5090833,3.66666667 72,3.66666667 Z M65.7777778,8.11111111 C65.2868611,8.11111111 64.8888889,8.50908333 64.8888889,9 C64.8888889,9.49091667 65.2868611,9.88888889 65.7777778,9.88888889 C66.2686944,9.88888889 66.6666667,9.49091667 66.6666667,9 C66.6666667,8.50908333 66.2686944,8.11111111 65.7777778,8.11111111 Z M67.6002222,3.71133333 C67.1093056,3.71133333 66.7113333,4.10930556 66.7113333,4.60022222 C66.7113333,5.09113889 67.1093056,5.48911111 67.6002222,5.48911111 C68.0911389,5.48911111 68.4891111,5.09113889 68.4891111,4.60022222 C68.4891111,4.10930556 68.0911389,3.71133333 67.6002222,3.71133333 Z M76.3997778,3.71133333 C75.9088611,3.71133333 75.5108889,4.10930556 75.5108889,4.60022222 C75.5108889,5.09113889 75.9088611,5.48911111 76.3997778,5.48911111 C76.8906944,5.48911111 77.2886667,5.09113889 77.2886667,4.60022222 C77.2886667,4.10930556 76.8906944,3.71133333 76.3997778,3.71133333 Z M73.9809444,4.58727778 C73.6301944,4.47505556 73.2550278,4.66838889 73.1428056,5.01905556 L71.8671667,9.00547222 C70.9474444,9.07347222 70.2222222,9.84066667 70.2222222,10.7777778 C70.2222222,11.7596111 71.0181667,12.5555556 72,12.5555556 C72.9818333,12.5555556 73.7777778,11.7596111 73.7777778,10.7777778 C73.7777778,10.2285278 73.5285833,9.73758333 73.1371944,9.41147222 L74.4127222,5.42541667 C74.5249167,5.07472222 74.3316111,4.6995 73.9809444,4.58727778 Z" id="Shape" fill="#A0A0A0" fill-rule="nonzero"></path>
            <path d="M88.7134098,4.08937803 L88.7134098,0.147349043 L82.9163084,0.147349043 C82.5308011,0.147349043 82.2206562,0.45749397 82.2206562,0.84300122 L82.2206562,14.2922766 C82.2206562,14.6777838 82.5308011,14.9879288 82.9163084,14.9879288 L92.6554388,14.9879288 C93.0409461,14.9879288 93.351091,14.6777838 93.351091,14.2922766 L93.351091,4.7850302 L89.409062,4.7850302 C89.0264533,4.7850302 88.7134098,4.47198672 88.7134098,4.08937803 Z M93.351091,3.68068238 L93.351091,3.85749397 L89.6409461,3.85749397 L89.6409461,0.147349043 L89.8177577,0.147349043 C90.0032649,0.147349043 90.1800765,0.219812811 90.3105113,0.350247594 L93.1481924,3.1908273 C93.2786272,3.32126209 93.351091,3.49807368 93.351091,3.68068238 Z" id="Shape" fill="#A0A0A0" fill-rule="nonzero"></path>
            <path d="M40.0550214,4.79698501 C41.3172767,4.79698501 42.3405328,5.82024112 42.3405328,7.08249641 C42.3405328,8.34475171 41.3172767,9.36800781 40.0550214,9.36800781 C38.7927661,9.36800781 37.76951,8.34475171 37.76951,7.08249641 C37.76951,5.82024112 38.7927661,4.79698501 40.0550214,4.79698501 Z M42.524745,9.52834188 L41.6544658,9.31076119 C40.584237,10.0805432 39.2869807,9.90875981 38.4555988,9.31076119 L37.5853195,9.52834188 C36.8876291,9.70275905 36.3982032,10.3295986 36.3982032,11.0487511 L36.3982032,12.3718228 C36.3982032,12.8045898 36.74904,13.1554267 37.1818071,13.1554267 L42.9282357,13.1554267 C43.3610027,13.1554267 43.7118396,12.8045898 43.7118396,12.3718228 L43.7118396,11.0487511 C43.7118396,10.3295986 43.2224137,9.70275905 42.524745,9.52834188 Z M44.5825106,9.93394397 C45.4240142,9.93394397 46.1061849,9.25177323 46.1061849,8.4102697 C46.1061849,7.56876617 45.4240142,6.88659544 44.5825106,6.88659544 C43.7410071,6.88659544 43.0588364,7.56876617 43.0588364,8.4102697 C43.0588364,9.25177323 43.7410071,9.93394397 44.5825106,9.93394397 Z M35.5275321,9.93394397 C36.3690357,9.93394397 37.0512064,9.25177323 37.0512064,8.4102697 C37.0512064,7.56876617 36.3690357,6.88659544 35.5275321,6.88659544 C34.6860286,6.88659544 34.0038579,7.56876617 34.0038579,8.4102697 C34.0038579,9.25177323 34.6860286,9.93394397 35.5275321,9.93394397 Z M36.0499347,12.3718228 L36.0499347,11.0487511 C36.0499347,10.6884892 36.1499096,10.3477739 36.3264381,10.0562079 C35.673696,10.3766149 34.9478176,10.245753 34.4612431,9.89578681 L33.8810497,10.0408406 C33.4159373,10.1570969 33.0896533,10.575019 33.0896533,11.0544323 L33.0896533,11.9364873 C33.0896533,12.2250059 33.3235373,12.4588899 33.6120559,12.4588899 L36.0536133,12.4588899 C36.0512788,12.429925 36.0500517,12.4008814 36.0499347,12.3718228 Z M46.228993,10.0408188 L45.6487997,9.89576504 C45.0409625,10.3329725 44.3234207,10.3144054 43.7815151,10.0528776 C43.9593061,10.3451836 44.060108,10.6870962 44.060108,11.0487511 L44.060108,12.3718228 C44.060108,12.4011426 44.0586279,12.4301142 44.0564294,12.4588899 L46.4979869,12.4588899 C46.7865055,12.4588899 47.0203895,12.2250059 47.0203895,11.9364873 L47.0203895,11.0544323 C47.0203895,10.575019 46.6941055,10.1570969 46.228993,10.0408188 Z" id="Shape" fill="#A0A0A0" fill-rule="nonzero"></path>
            <path d="M30.6330493,4 C31.3205493,4 31.8830493,4.5625 31.8830493,5.25 L31.8830493,14.75 C31.8830493,15.4375 31.3205493,16 30.6330493,16 L18.1330493,16 C17.4455493,16 16.8830493,15.4375 16.8830493,14.75 L16.8830493,5.25 C16.8830493,4.5625 17.4455493,4 18.1330493,4 L30.6330493,4 Z M18.1330493,5 C18.0002368,5 17.8830493,5.1171875 17.8830493,5.25 L17.8830493,7 L30.8830493,7 L30.8830493,5.25 C30.8830493,5.1171875 30.7658618,5 30.6330493,5 L18.1330493,5 Z M30.6330493,15 C30.7658618,15 30.8830493,14.8828125 30.8830493,14.75 L30.8830493,10 L17.8830493,10 L17.8830493,14.75 C17.8830493,14.8828125 18.0002368,15 18.1330493,15 L30.6330493,15 Z M18.8830493,14 L18.8830493,13 L20.8830493,13 L20.8830493,14 L18.8830493,14 Z M21.8830493,14 L21.8830493,13 L24.8830493,13 L24.8830493,14 L21.8830493,14 Z" id="" fill="#A0A0A0" fill-rule="nonzero"></path>
            <path d="M103.5,1 C106.088848,1 108.1875,3.09865234 108.1875,5.6875 C108.1875,8.27634766 106.088848,10.375 103.5,10.375 C100.911152,10.375 98.8125,8.27634766 98.8125,5.6875 C98.8125,3.09865234 100.911152,1 103.5,1 Z M108.869619,10.7799121 L106.780371,10.2576074 C104.585361,11.836416 101.924766,11.4840918 100.219629,10.2576074 L98.1303809,10.7799121 C96.8783496,11.0929199 96,12.2178613 96,13.5084473 L96,14.59375 C96,15.3704102 96.6295898,16 97.40625,16 L109.59375,16 C110.37041,16 111,15.3704102 111,14.59375 L111,13.5084473 C111,12.2178613 110.12165,11.0929199 108.869619,10.7799121 Z" id="Shape" fill="#A0A0A0" fill-rule="nonzero"></path>
            <path d="M145.993127,10.9056218 C145.993127,12.6729218 144.560427,14.1056218 142.793127,14.1056218 L133.593127,14.1056218 C131.604902,14.1056218 129.993127,12.4938468 129.993127,10.5056218 C129.993127,8.93629682 130.997402,7.60174682 132.398227,7.10894682 C132.394842,7.04122454 132.393142,6.9734286 132.393127,6.90562182 C132.393127,4.69647182 134.183977,2.90562182 136.393127,2.90562182 C137.875327,2.90562182 139.169177,3.71182182 139.860227,4.90959682 C140.241502,4.65447182 140.699902,4.50562182 141.193127,4.50562182 C142.518602,4.50562182 143.593127,5.58014682 143.593127,6.90562182 C143.593127,7.21022182 143.536252,7.50152182 143.432752,7.76962182 C144.893552,8.06597182 145.993127,9.35737182 145.993127,10.9056218 Z M140.110277,8.62277182 L137.475977,5.98847182 C137.319777,5.83227182 137.066502,5.83227182 136.910302,5.98847182 L134.275977,8.62277182 C134.023977,8.87477182 134.202452,9.30562182 134.558802,9.30562182 L136.193127,9.30562182 L136.193127,12.1056218 C136.193127,12.3265468 136.372227,12.5056218 136.593127,12.5056218 L137.793127,12.5056218 C138.014027,12.5056218 138.193127,12.3265468 138.193127,12.1056218 L138.193127,9.30562182 L139.827452,9.30562182 C140.183802,9.30562182 140.362277,8.87477182 140.110277,8.62277182 Z" id="Shape" fill="#A0A0A0" fill-rule="nonzero"></path>
            <path d="M121.450433,13.8571415 L127.164726,13.8571415 L127.164726,12.714283 L121.450433,12.714283 L121.450433,13.8571415 Z M118.021857,9.2857075 L127.164726,9.2857075 L127.164726,8.14284897 L118.021857,8.14284897 L118.021857,9.2857075 Z M123.73615,4.71427345 L127.164726,4.71427345 L127.164726,3.57141495 L123.73615,3.57141495 L123.73615,4.71427345 Z M128.307584,12.1428537 L128.307584,14.4285707 C128.307584,14.7410711 128.048655,15 127.736155,15 L112.878994,15 C112.566494,15 112.307565,14.7410711 112.307565,14.4285707 L112.307565,12.1428537 C112.307565,11.8303534 112.566494,11.5714245 112.878994,11.5714245 L127.736155,11.5714245 C128.048655,11.5714245 128.307584,11.8303534 128.307584,12.1428537 Z M128.307584,7.57141972 L128.307584,9.8571367 C128.307584,10.1696371 128.048655,10.428566 127.736155,10.428566 L112.878994,10.428566 C112.566494,10.428566 112.307565,10.1696371 112.307565,9.8571367 L112.307565,7.57141972 C112.307565,7.25891934 112.566494,6.99999046 112.878994,6.99999046 L127.736155,6.99999046 C128.048655,6.99999046 128.307584,7.25891934 128.307584,7.57141972 Z M128.307584,2.99998569 L128.307584,5.28570271 C128.307584,5.59820308 128.048655,5.85713196 127.736155,5.85713196 L112.878994,5.85713196 C112.566494,5.85713196 112.307565,5.59820308 112.307565,5.28570271 L112.307565,2.99998569 C112.307565,2.68748532 112.566494,2.42855644 112.878994,2.42855644 L127.736155,2.42855644 C128.048655,2.42855644 128.307584,2.68748532 128.307584,2.99998569 Z" id="" fill="#A0A0A0" fill-rule="nonzero"></path>
            <path d="M154.939802,4.96000038 L154.939802,1.92000075 C154.939802,1.4403051 155.328677,1.05142943 155.808373,1.05142943 C156.288069,1.05142943 156.676944,1.4403051 156.676944,1.92000075 L156.676944,4.96000038 L154.939802,4.96000038 Z M157.979801,5.39428604 L148.425517,5.39428604 C148.185655,5.39428604 147.991231,5.5887103 147.991231,5.8285717 L147.991231,6.69714302 C147.991231,6.93700442 148.185655,7.13142868 148.425517,7.13142868 L148.859802,7.13142868 L148.859802,8 C148.859802,10.1010197 150.351818,11.8534981 152.334088,12.2558909 L152.334088,14.9485706 L154.07123,14.9485706 L154.07123,12.2558909 C156.0535,11.8534981 157.545516,10.1010197 157.545516,8 L157.545516,7.13142868 L157.979801,7.13142868 C158.219663,7.13142868 158.414087,6.93700442 158.414087,6.69714302 L158.414087,5.8285717 C158.414087,5.5887103 158.219663,5.39428604 157.979801,5.39428604 Z M151.465516,4.96000038 L151.465516,1.92000075 C151.465516,1.4403051 151.076641,1.05142943 150.596945,1.05142943 C150.117249,1.05142943 149.728374,1.4403051 149.728374,1.92000075 L149.728374,4.96000038 L151.465516,4.96000038 Z" id="Shape" fill="#A0A0A0" fill-rule="nonzero"></path>
            <mask id="mask-2" fill="white">
                <use xlink:href="#path-1"></use>
            </mask>
            <use id="Mask" fill="#A0A0A0" fill-rule="nonzero" xlink:href="#path-1"></use>
        </g>
    </g>
</svg>