
<svg width="175px" height="17px" viewBox="0 0 175 17" version="1.1" xmlns="http://www.w3.org/2000/svg" xmlns:xlink="http://www.w3.org/1999/xlink">
    <!-- Generator: Sketch 48.2 (47327) - http://www.bohemiancoding.com/sketch -->
    <desc>Created with Sketch.</desc>
    <defs></defs>
    <g id="Page-1" stroke="none" stroke-width="1" fill="none" fill-rule="evenodd">
        <g id="cd-nav-icons-blue" transform="translate(0.000000, -1.000000)" fill="#A0A0A0" fill-rule="nonzero">
            <path d="M60.6990791,7.91589314 L60.494399,8.27283541 C60.419516,8.40512871 60.2597656,8.4600429 60.1174879,8.40762481 C59.8229481,8.29779641 59.5533693,8.14054212 59.3162398,7.94335024 C59.2014192,7.84849844 59.171466,7.68125975 59.246349,7.55146256 L59.4510292,7.19452028 C59.2787983,6.99483229 59.1440089,6.76269501 59.0541493,6.51058893 L58.6422929,6.51058893 C58.4925269,6.51058893 58.3627297,6.40325663 58.3377687,6.25349064 C58.2878467,5.95395866 58.2853506,5.63945008 58.3377687,5.3274376 C58.3627297,5.17767161 58.4925269,5.06784322 58.6422929,5.06784322 L59.0541493,5.06784322 C59.1440089,4.81573713 59.2787983,4.58359985 59.4510292,4.38391186 L59.246349,4.02696958 C59.171466,3.89717239 59.1989231,3.7299337 59.3162398,3.6350819 C59.5533693,3.43789002 59.8254442,3.28063573 60.1174879,3.17080733 C60.2597656,3.11838924 60.419516,3.17330343 60.494399,3.30559673 L60.6990791,3.662539 C60.9611696,3.61511311 61.2282523,3.61511311 61.4903428,3.662539 L61.695023,3.30559673 C61.769906,3.17330343 61.9296564,3.11838924 62.0719341,3.17080733 C62.3664738,3.28063573 62.6360526,3.43789002 62.8731821,3.6350819 C62.9880027,3.7299337 63.0179559,3.89717239 62.9430729,4.02696958 L62.7383927,4.38391186 C62.9106236,4.58359985 63.045413,4.81573713 63.1352726,5.06784322 L63.5471291,5.06784322 C63.6968951,5.06784322 63.8266923,5.17517551 63.8516532,5.3249415 C63.9015752,5.62447348 63.9040713,5.93898206 63.8516532,6.25099454 C63.8266923,6.40076053 63.6968951,6.51058893 63.5471291,6.51058893 L63.1352726,6.51058893 C63.045413,6.76269501 62.9106236,6.99483229 62.7383927,7.19452028 L62.9430729,7.55146256 C63.0179559,7.68125975 62.9904988,7.84849844 62.8731821,7.94335024 C62.6360526,8.14054212 62.3639777,8.29779641 62.0719341,8.40762481 C61.9296564,8.4600429 61.769906,8.40512871 61.695023,8.27283541 L61.4903428,7.91589314 C61.2307484,7.96331903 60.9611696,7.96331903 60.6990791,7.91589314 Z M60.4369887,6.44818643 C61.3979871,7.18703198 62.4937749,6.09124415 61.7549294,5.13024571 C60.7939309,4.38890406 59.6981431,5.48718799 60.4369887,6.44818643 Z M57.5589855,10.2896841 L58.4001712,10.7090289 C58.6522773,10.8538026 58.7621057,11.1608229 58.6622617,11.4353939 C58.4401088,12.0394501 58.0032913,12.5935842 57.5989231,13.0778276 C57.4142118,13.2999805 57.094711,13.3548947 56.8426049,13.2101209 L56.1162398,12.7907761 C55.7168639,13.1327418 55.2525893,13.4048167 54.745881,13.5820398 L54.745881,14.4207293 C54.745881,14.7102769 54.5387047,14.9598869 54.2541494,15.0098089 C53.6401088,15.1146451 52.996115,15.1196373 52.3596096,15.0098089 C52.0725581,14.9598869 51.8603896,14.712773 51.8603896,14.4207293 L51.8603896,13.5820398 C51.3536813,13.4023206 50.8894068,13.1327418 50.4900308,12.7907761 L49.7636657,13.2076248 C49.5140557,13.3523986 49.1920589,13.2974844 49.0073475,13.0753315 C48.6029793,12.5910881 48.1761462,12.036954 47.9539933,11.4353939 C47.8541493,11.163319 47.9639777,10.8562987 48.2160838,10.7090289 L49.0472851,10.2896841 C48.9499372,9.76799922 48.9499372,9.23133776 49.0472851,8.70715679 L48.2160838,8.28531591 C47.9639777,8.14054212 47.8516532,7.83352184 47.9539933,7.56144696 C48.1761462,6.9573908 48.6029793,6.40325663 49.0073475,5.91901326 C49.1920589,5.69686038 49.5115597,5.64194618 49.7636657,5.78671997 L50.4900308,6.20606474 C50.8894068,5.86409907 51.3536813,5.59202418 51.8603896,5.41480109 L51.8603896,4.57361545 C51.8603896,4.28656396 52.0650698,4.03695398 52.3496252,3.98703198 C52.9636657,3.88219579 53.6101556,3.87720359 54.2466611,3.98453588 C54.5337125,4.03445788 54.745881,4.28157176 54.745881,4.57361545 L54.745881,5.41230499 C55.2525893,5.59202418 55.7168639,5.86160297 56.1162398,6.20356864 L56.8426049,5.78422387 C57.0922149,5.63945008 57.4142118,5.69436428 57.5989231,5.91651716 C58.0032913,6.40076053 58.4276283,6.9548947 58.6497812,7.55895086 C58.7496252,7.83102574 58.6522773,8.13804602 58.4001712,8.28531591 L57.5589855,8.70466069 C57.6563334,9.22884166 57.6563334,9.76550312 57.5589855,10.2896841 Z M54.6235721,10.8163612 C56.1012632,8.89436428 53.9071915,6.70029251 51.9851946,8.17798362 C50.5075035,10.0999805 52.7015753,12.2940523 54.6235721,10.8163612 Z M60.6990791,15.3767356 L60.494399,15.7336778 C60.419516,15.8659711 60.2597656,15.9208853 60.1174879,15.8684672 C59.8229481,15.7586388 59.5533693,15.6013846 59.3162398,15.4041927 C59.2014192,15.3093409 59.171466,15.1421022 59.246349,15.012305 L59.4510292,14.6553627 C59.2787983,14.4556747 59.1440089,14.2235374 59.0541493,13.9714314 L58.6422929,13.9714314 C58.4925269,13.9714314 58.3627297,13.8640991 58.3377687,13.7143331 C58.2878467,13.4148011 58.2853506,13.1002925 58.3377687,12.78828 C58.3627297,12.638514 58.4925269,12.5286856 58.6422929,12.5286856 L59.0541493,12.5286856 C59.1440089,12.2765796 59.2787983,12.0444423 59.4510292,11.8447543 L59.246349,11.487812 C59.171466,11.3580148 59.1989231,11.1907761 59.3162398,11.0959243 C59.5533693,10.8987325 59.8254442,10.7414782 60.1174879,10.6316498 C60.2597656,10.5792317 60.419516,10.6341459 60.494399,10.7664392 L60.6990791,11.1233814 C60.9611696,11.0759555 61.2282523,11.0759555 61.4903428,11.1233814 L61.695023,10.7664392 C61.769906,10.6341459 61.9296564,10.5792317 62.0719341,10.6316498 C62.3664738,10.7414782 62.6360526,10.8987325 62.8731821,11.0959243 C62.9880027,11.1907761 63.0179559,11.3580148 62.9430729,11.487812 L62.7383927,11.8447543 C62.9106236,12.0444423 63.045413,12.2765796 63.1352726,12.5286856 L63.5471291,12.5286856 C63.6968951,12.5286856 63.8266923,12.6360179 63.8516532,12.7857839 C63.9015752,13.0853159 63.9040713,13.3998245 63.8516532,13.711837 C63.8266923,13.861603 63.6968951,13.9714314 63.5471291,13.9714314 L63.1352726,13.9714314 C63.045413,14.2235374 62.9106236,14.4556747 62.7383927,14.6553627 L62.9430729,15.012305 C63.0179559,15.1421022 62.9904988,15.3093409 62.8731821,15.4041927 C62.6360526,15.6013846 62.3639777,15.7586388 62.0719341,15.8684672 C61.9296564,15.9208853 61.769906,15.8659711 61.695023,15.7336778 L61.4903428,15.3767356 C61.2307484,15.4241615 60.9611696,15.4241615 60.6990791,15.3767356 Z M60.4369887,13.9065328 C61.3979871,14.6453783 62.4937749,13.5495905 61.7549294,12.588592 C60.7939309,11.8497465 59.6981431,12.9455343 60.4369887,13.9065328 Z" id="Shape"></path>
            <path d="M166.887652,2.74303155 L165.172337,6.2205992 L161.334551,6.78005683 C160.646323,6.87986618 160.370507,7.72824559 160.869603,8.2141595 L163.646154,10.919518 L162.989448,14.7411652 C162.871241,15.431951 163.598871,15.9493836 164.208294,15.6263165 L167.64155,13.8218687 L171.074806,15.6263165 C171.684228,15.946757 172.411858,15.431951 172.293651,14.7411652 L171.636945,10.919518 L174.413496,8.2141595 C174.912592,7.72824559 174.636776,6.87986618 173.948548,6.78005683 L170.110762,6.2205992 L168.395447,2.74303155 C168.088109,2.123163 167.197617,2.11528332 166.887652,2.74303155 Z" id="Mask"></path>
            <g id="th-large" transform="translate(0.000000, 2.000000)">
                <path d="M9.25,0 L15.25,0 C15.6642187,0 16,0.38375 16,0.857142857 L16,6.57142857 C16,7.04482143 15.6642187,7.42857143 15.25,7.42857143 L9.25,7.42857143 C8.83578125,7.42857143 8.5,7.04482143 8.5,6.57142857 L8.5,0.857142857 C8.5,0.38375 8.83578125,0 9.25,0 Z M6.75,0 L0.75,0 C0.33578125,0 0,0.38375 0,0.857142857 L0,6.57142857 C0,7.04482143 0.33578125,7.42857143 0.75,7.42857143 L6.75,7.42857143 C7.16421875,7.42857143 7.5,7.04482143 7.5,6.57142857 L7.5,0.857142857 C7.5,0.38375 7.16421875,0 6.75,0 Z M0,9.42857143 L0,15.1428571 C0,15.61625 0.33578125,16 0.75,16 L6.75,16 C7.16421875,16 7.5,15.61625 7.5,15.1428571 L7.5,9.42857143 C7.5,8.95517857 7.16421875,8.57142857 6.75,8.57142857 L0.75,8.57142857 C0.33578125,8.57142857 0,8.95517857 0,9.42857143 Z M9.25,16 L15.25,16 C15.6642187,16 16,15.61625 16,15.1428571 L16,9.42857143 C16,8.95517857 15.6642187,8.57142857 15.25,8.57142857 L9.25,8.57142857 C8.83578125,8.57142857 8.5,8.95517857 8.5,9.42857143 L8.5,15.1428571 C8.5,15.61625 8.83578125,16 9.25,16 Z" id="Shape"></path>
            </g>
            <g id="Group" transform="translate(64.000000, 2.000000)">
                <path d="M2.10261111,12.4444444 C1.60832689,12.4444287 1.15457427,12.1710846 0.9235,11.7341389 C0.333972222,10.6194444 0,9.34877778 0,8 C0,3.58172222 3.58172222,0 8,0 C12.4182778,0 16,3.58172222 16,8 C16,9.34877778 15.6660278,10.6194444 15.0765,11.7341389 C14.8454351,12.1710935 14.3916766,12.4444411 13.8973889,12.4444444 L2.10261111,12.4444444 Z M14.2222222,7.11111111 C13.7313056,7.11111111 13.3333333,7.50908333 13.3333333,8 C13.3333333,8.49091667 13.7313056,8.88888889 14.2222222,8.88888889 C14.7131389,8.88888889 15.1111111,8.49091667 15.1111111,8 C15.1111111,7.50908333 14.7131389,7.11111111 14.2222222,7.11111111 Z M8,2.66666667 C8.49091667,2.66666667 8.88888889,2.26869444 8.88888889,1.77777778 C8.88888889,1.28686111 8.49091667,0.888888889 8,0.888888889 C7.50908333,0.888888889 7.11111111,1.28686111 7.11111111,1.77777778 C7.11111111,2.26869444 7.50908333,2.66666667 8,2.66666667 Z M1.77777778,7.11111111 C1.28686111,7.11111111 0.888888889,7.50908333 0.888888889,8 C0.888888889,8.49091667 1.28686111,8.88888889 1.77777778,8.88888889 C2.26869444,8.88888889 2.66666667,8.49091667 2.66666667,8 C2.66666667,7.50908333 2.26869444,7.11111111 1.77777778,7.11111111 Z M3.60022222,2.71133333 C3.10930556,2.71133333 2.71133333,3.10930556 2.71133333,3.60022222 C2.71133333,4.09113889 3.10930556,4.48911111 3.60022222,4.48911111 C4.09113889,4.48911111 4.48911111,4.09113889 4.48911111,3.60022222 C4.48911111,3.10930556 4.09113889,2.71133333 3.60022222,2.71133333 Z M12.3997778,2.71133333 C11.9088611,2.71133333 11.5108889,3.10930556 11.5108889,3.60022222 C11.5108889,4.09113889 11.9088611,4.48911111 12.3997778,4.48911111 C12.8906944,4.48911111 13.2886667,4.09113889 13.2886667,3.60022222 C13.2886667,3.10930556 12.8906944,2.71133333 12.3997778,2.71133333 Z M9.98094444,3.58727778 C9.63019444,3.47505556 9.25502778,3.66838889 9.14280556,4.01905556 L7.86716667,8.00547222 C6.94744444,8.07347222 6.22222222,8.84066667 6.22222222,9.77777778 C6.22222222,10.7596111 7.01816667,11.5555556 8,11.5555556 C8.98183333,11.5555556 9.77777778,10.7596111 9.77777778,9.77777778 C9.77777778,9.22852778 9.52858333,8.73758333 9.13719444,8.41147222 L10.4127222,4.42541667 C10.5249167,4.07472222 10.3316111,3.6995 9.98094444,3.58727778 Z" id="Shape"></path>
            </g>
            <g id="file" transform="translate(82.086957, 0.500000)">
                <path d="M6.62645283,4.58937803 L6.62645283,0.647349043 L0.829351383,0.647349043 C0.443844137,0.647349043 0.133699209,0.95749397 0.133699209,1.34300122 L0.133699209,14.7922766 C0.133699209,15.1777838 0.443844137,15.4879288 0.829351383,15.4879288 L10.5684818,15.4879288 C10.9539891,15.4879288 11.264134,15.1777838 11.264134,14.7922766 L11.264134,5.2850302 L7.32210501,5.2850302 C6.93949631,5.2850302 6.62645283,4.97198672 6.62645283,4.58937803 Z M11.264134,4.18068238 L11.264134,4.35749397 L7.55398906,4.35749397 L7.55398906,0.647349043 L7.73080066,0.647349043 C7.9163079,0.647349043 8.0931195,0.719812811 8.22355428,0.850247594 L11.0612354,3.6908273 C11.1916702,3.82126209 11.264134,3.99807368 11.264134,4.18068238 Z" id="Shape"></path>
            </g>
            <g id="users" transform="translate(32.383049, 5.500000)">
                <path d="M7.67197239,0.296985014 C8.93422768,0.296985014 9.95748379,1.32024112 9.95748379,2.58249641 C9.95748379,3.84475171 8.93422768,4.86800781 7.67197239,4.86800781 C6.40971709,4.86800781 5.38646099,3.84475171 5.38646099,2.58249641 C5.38646099,1.32024112 6.40971709,0.296985014 7.67197239,0.296985014 Z M10.141696,5.02834188 L9.2714168,4.81076119 C8.201188,5.5805432 6.90393173,5.40875981 6.07254975,4.81076119 L5.20227054,5.02834188 C4.50458009,5.20275905 4.01515415,5.82959864 4.01515415,6.54875113 L4.01515415,7.87182279 C4.01515415,8.30458982 4.36599103,8.6554267 4.79875806,8.6554267 L10.5451867,8.6554267 C10.9779537,8.6554267 11.3287906,8.30458982 11.3287906,7.87182279 L11.3287906,6.54875113 C11.3287906,5.82959864 10.8393647,5.20275905 10.141696,5.02834188 Z M12.1994616,5.43394397 C13.0409652,5.43394397 13.7231359,4.75177323 13.7231359,3.9102697 C13.7231359,3.06876617 13.0409652,2.38659544 12.1994616,2.38659544 C11.3579581,2.38659544 10.6757874,3.06876617 10.6757874,3.9102697 C10.6757874,4.75177323 11.3579581,5.43394397 12.1994616,5.43394397 Z M3.14448314,5.43394397 C3.98598667,5.43394397 4.66815741,4.75177323 4.66815741,3.9102697 C4.66815741,3.06876617 3.98598667,2.38659544 3.14448314,2.38659544 C2.30297961,2.38659544 1.62080888,3.06876617 1.62080888,3.9102697 C1.62080888,4.75177323 2.30297961,5.43394397 3.14448314,5.43394397 Z M3.66688575,7.87182279 L3.66688575,6.54875113 C3.66688575,6.18848923 3.76686055,5.8477739 3.94338909,5.55620794 C3.29064704,5.87661488 2.56476862,5.74575302 2.07819412,5.39578681 L1.49800073,5.5408406 C1.03288828,5.65709695 0.706604317,6.07501903 0.706604317,6.55443226 L0.706604317,7.43648729 C0.706604317,7.72500589 0.940488317,7.95888989 1.22900692,7.95888989 L3.67056433,7.95888989 C3.66822983,7.92992496 3.66700274,7.90088142 3.66688575,7.87182279 Z M13.845944,5.54081883 L13.2657507,5.39576504 C12.6579135,5.83297249 11.9403717,5.81440543 11.3984661,5.55287763 C11.5762571,5.84518365 11.677059,6.18709616 11.677059,6.54875113 L11.677059,7.87182279 C11.677059,7.90114264 11.6755789,7.93011422 11.6733804,7.95888989 L14.1149379,7.95888989 C14.4034565,7.95888989 14.6373405,7.72500589 14.6373405,7.43648729 L14.6373405,6.55443226 C14.6373405,6.07501903 14.3110565,5.65709695 13.845944,5.54081883 Z" id="Shape"></path>
            </g>
            <path d="M30.6330493,5 C31.3205493,5 31.8830493,5.5625 31.8830493,6.25 L31.8830493,15.75 C31.8830493,16.4375 31.3205493,17 30.6330493,17 L18.1330493,17 C17.4455493,17 16.8830493,16.4375 16.8830493,15.75 L16.8830493,6.25 C16.8830493,5.5625 17.4455493,5 18.1330493,5 L30.6330493,5 Z M18.1330493,6 C18.0002368,6 17.8830493,6.1171875 17.8830493,6.25 L17.8830493,8 L30.8830493,8 L30.8830493,6.25 C30.8830493,6.1171875 30.7658618,6 30.6330493,6 L18.1330493,6 Z M30.6330493,16 C30.7658618,16 30.8830493,15.8828125 30.8830493,15.75 L30.8830493,11 L17.8830493,11 L17.8830493,15.75 C17.8830493,15.8828125 18.0002368,16 18.1330493,16 L30.6330493,16 Z M18.8830493,15 L18.8830493,14 L20.8830493,14 L20.8830493,15 L18.8830493,15 Z M21.8830493,15 L21.8830493,14 L24.8830493,14 L24.8830493,15 L21.8830493,15 Z" id=""></path>
            <g id="user" transform="translate(96.000000, 2.000000)">
                <path d="M7.5,0 C10.0888477,0 12.1875,2.09865234 12.1875,4.6875 C12.1875,7.27634766 10.0888477,9.375 7.5,9.375 C4.91115234,9.375 2.8125,7.27634766 2.8125,4.6875 C2.8125,2.09865234 4.91115234,0 7.5,0 Z M12.8696191,9.77991211 L10.7803711,9.25760742 C8.58536133,10.836416 5.92476563,10.4840918 4.21962891,9.25760742 L2.13038086,9.77991211 C0.878349609,10.0929199 0,11.2178613 0,12.5084473 L0,13.59375 C0,14.3704102 0.629589844,15 1.40625,15 L13.59375,15 C14.3704102,15 15,14.3704102 15,13.59375 L15,12.5084473 C15,11.2178613 14.1216504,10.0929199 12.8696191,9.77991211 Z" id="Shape"></path>
            </g>
            <g id="cloud-upload-alt" transform="translate(129.500000, 3.900000)">
                <path d="M16.4931268,8.00562182 C16.4931268,9.77292182 15.0604268,11.2056218 13.2931268,11.2056218 L4.09312683,11.2056218 C2.10490183,11.2056218 0.493126825,9.59384682 0.493126825,7.60562182 C0.493126825,6.03629682 1.49740183,4.70174682 2.89822683,4.20894682 C2.89484248,4.14122454 2.89314196,4.0734286 2.89312683,4.00562182 C2.89312683,1.79647182 4.68397683,0.00562181651 6.89312683,0.00562181651 C8.37532683,0.00562181651 9.66917683,0.811821817 10.3602268,2.00959682 C10.7415018,1.75447182 11.1999018,1.60562182 11.6931268,1.60562182 C13.0186018,1.60562182 14.0931268,2.68014682 14.0931268,4.00562182 C14.0931268,4.31022182 14.0362518,4.60152182 13.9327518,4.86962182 C15.3935518,5.16597182 16.4931268,6.45737182 16.4931268,8.00562182 Z M10.6102768,5.72277182 L7.97597683,3.08847182 C7.81977683,2.93227182 7.56650183,2.93227182 7.41030183,3.08847182 L4.77597683,5.72277182 C4.52397683,5.97477182 4.70245183,6.40562182 5.05880183,6.40562182 L6.69312683,6.40562182 L6.69312683,9.20562182 C6.69312683,9.42654682 6.87222683,9.60562182 7.09312683,9.60562182 L8.29312683,9.60562182 C8.51402683,9.60562182 8.69312683,9.42654682 8.69312683,9.20562182 L8.69312683,6.40562182 L10.3274518,6.40562182 C10.6838018,6.40562182 10.8622768,5.97477182 10.6102768,5.72277182 Z" id="Shape"></path>
            </g>
            <path d="M121.450433,14.8571415 L127.164726,14.8571415 L127.164726,13.714283 L121.450433,13.714283 L121.450433,14.8571415 Z M118.021857,10.2857075 L127.164726,10.2857075 L127.164726,9.14284897 L118.021857,9.14284897 L118.021857,10.2857075 Z M123.73615,5.71427345 L127.164726,5.71427345 L127.164726,4.57141495 L123.73615,4.57141495 L123.73615,5.71427345 Z M128.307584,13.1428537 L128.307584,15.4285707 C128.307584,15.7410711 128.048655,16 127.736155,16 L112.878994,16 C112.566494,16 112.307565,15.7410711 112.307565,15.4285707 L112.307565,13.1428537 C112.307565,12.8303534 112.566494,12.5714245 112.878994,12.5714245 L127.736155,12.5714245 C128.048655,12.5714245 128.307584,12.8303534 128.307584,13.1428537 Z M128.307584,8.57141972 L128.307584,10.8571367 C128.307584,11.1696371 128.048655,11.428566 127.736155,11.428566 L112.878994,11.428566 C112.566494,11.428566 112.307565,11.1696371 112.307565,10.8571367 L112.307565,8.57141972 C112.307565,8.25891934 112.566494,7.99999046 112.878994,7.99999046 L127.736155,7.99999046 C128.048655,7.99999046 128.307584,8.25891934 128.307584,8.57141972 Z M128.307584,3.99998569 L128.307584,6.28570271 C128.307584,6.59820308 128.048655,6.85713196 127.736155,6.85713196 L112.878994,6.85713196 C112.566494,6.85713196 112.307565,6.59820308 112.307565,6.28570271 L112.307565,3.99998569 C112.307565,3.68748532 112.566494,3.42855644 112.878994,3.42855644 L127.736155,3.42855644 C128.048655,3.42855644 128.307584,3.68748532 128.307584,3.99998569 Z" id=""></path>
            <g id="plug" transform="translate(147.000000, 2.000000)">
                <path d="M7.93980156,3.96000038 L7.93980156,0.92000075 C7.93980156,0.440305095 8.32867723,0.051429429 8.80837288,0.051429429 C9.28806854,0.051429429 9.67694421,0.440305095 9.67694421,0.92000075 L9.67694421,3.96000038 L7.93980156,3.96000038 Z M10.9798012,4.39428604 L1.42551665,4.39428604 C1.18565525,4.39428604 0.991230991,4.5887103 0.991230991,4.8285717 L0.991230991,5.69714302 C0.991230991,5.93700442 1.18565525,6.13142868 1.42551665,6.13142868 L1.85980231,6.13142868 L1.85980231,7 C1.85980231,9.10101974 3.35181784,10.8534981 5.3340876,11.2558909 L5.3340876,13.9485706 L7.07123024,13.9485706 L7.07123024,11.2558909 C9.0535,10.8534981 10.5455155,9.10101974 10.5455155,7 L10.5455155,6.13142868 L10.9798012,6.13142868 C11.2196626,6.13142868 11.4140868,5.93700442 11.4140868,5.69714302 L11.4140868,4.8285717 C11.4140868,4.5887103 11.2196626,4.39428604 10.9798012,4.39428604 Z M4.46551628,3.96000038 L4.46551628,0.92000075 C4.46551628,0.440305095 4.07664061,0.051429429 3.59694496,0.051429429 C3.1172493,0.051429429 2.72837363,0.440305095 2.72837363,0.92000075 L2.72837363,3.96000038 L4.46551628,3.96000038 Z" id="Shape"></path>
            </g>
        </g>
    </g>
</svg>