
<svg width="70px" height="38px" viewBox="0 0 70 38" version="1.1" xmlns="http://www.w3.org/2000/svg" xmlns:xlink="http://www.w3.org/1999/xlink">
    <!-- Generator: Sketch 48.2 (47327) - https://www.bohemiancoding.com/sketch -->
    <desc>Created with Sketch.</desc>
    <defs></defs>
    <g id="Page-1" stroke="none" stroke-width="1" fill="none" fill-rule="evenodd" fill-opacity="0.258633379">
        <g id="Group" fill="#4E0390">
            <path d="M40.3303742,8.86829507 C40.3303742,8.6785627 40.2634099,8.49999106 40.1294811,8.36606233 L39.1138549,7.35043612 C38.9799262,7.21650739 38.8013545,7.14954302 38.6116222,7.14954302 C38.4218898,7.14954302 38.2433182,7.21650739 38.1093894,7.35043612 L36.0000119,9.45981363 L36.0000119,3.85712838 C36.0000119,3.46650292 35.6763508,3.14284182 35.2857254,3.14284182 L33.8571522,3.14284182 C33.4665268,3.14284182 33.1428657,3.46650292 33.1428657,3.85712838 L33.1428657,9.45981363 L31.0334881,7.35043612 C30.8995594,7.21650739 30.7209878,7.13838229 30.5312554,7.13838229 C30.341523,7.13838229 30.1629514,7.21650739 30.0290227,7.35043612 L29.0133964,8.36606233 C28.8794677,8.49999106 28.8125034,8.6785627 28.8125034,8.86829507 C28.8125034,9.05802744 28.8794677,9.23659908 29.0133964,9.37052781 L34.069206,14.4263374 C34.2031348,14.5602661 34.3817064,14.6272305 34.5714388,14.6272305 C34.7611712,14.6272305 34.9397428,14.5602661 35.0736715,14.4263374 L40.1294811,9.37052781 C40.2634099,9.23659908 40.3303742,9.05802744 40.3303742,8.86829507 Z M43.1428776,8.85713434 C43.1428776,13.5892828 39.3035873,17.4285731 34.5714388,17.4285731 C29.8392903,17.4285731 26,13.5892828 26,8.85713434 C26,4.12498584 29.8392903,0.285695553 34.5714388,0.285695553 C39.3035873,0.285695553 43.1428776,4.12498584 43.1428776,8.85713434 Z" id=""></path>
            <path d="M7.015625,30.6347656 C7.015625,32.0488352 6.63183978,33.1298791 5.86425781,33.8779297 C5.09667585,34.6259803 3.99219471,35 2.55078125,35 L0.177734375,35 L0.177734375,26.4335938 L2.80273437,26.4335938 C4.13477229,26.4335938 5.16991818,26.8027307 5.90820312,27.5410156 C6.64648807,28.2793006 7.015625,29.3105403 7.015625,30.6347656 Z M5.9609375,30.6699219 C5.9609375,29.5527288 5.68066687,28.7109403 5.12011719,28.1445312 C4.55956751,27.5781222 3.72656803,27.2949219 2.62109375,27.2949219 L1.17382812,27.2949219 L1.17382812,34.1386719 L2.38671875,34.1386719 C3.57422469,34.1386719 4.46679389,33.8466826 5.06445312,33.2626953 C5.66211236,32.678708 5.9609375,31.8144588 5.9609375,30.6699219 Z M11.9489844,28.4609375 C12.234142,28.4609375 12.4899989,28.4843748 12.7165625,28.53125 L12.5817969,29.4335938 C12.3161705,29.3749997 12.0817979,29.3457031 11.8786719,29.3457031 C11.359138,29.3457031 10.9148065,29.5566385 10.5456641,29.9785156 C10.1765216,30.4003927 9.99195312,30.9257781 9.99195312,31.5546875 L9.99195312,35 L9.01929687,35 L9.01929687,28.578125 L9.82203124,28.578125 L9.93335937,29.7675781 L9.98023437,29.7675781 C10.2185168,29.3496073 10.5056233,29.0273449 10.8415625,28.8007812 C11.1775017,28.5742176 11.5466386,28.4609375 11.9489844,28.4609375 Z M17.8667187,35 L17.6733594,34.0859375 L17.6264844,34.0859375 C17.3061703,34.4882833 16.9868375,34.7607415 16.6684766,34.9033203 C16.3501156,35.0458992 15.9526586,35.1171875 15.4760937,35.1171875 C14.8393718,35.1171875 14.3403534,34.9531266 13.9790234,34.625 C13.6176935,34.2968734 13.4370312,33.8300812 13.4370312,33.2246094 C13.4370312,31.9277279 14.4741302,31.2480472 16.5483594,31.1855469 L17.6382031,31.1503906 L17.6382031,30.7519531 C17.6382031,30.2480444 17.5298058,29.8759778 17.3130078,29.6357422 C17.0962098,29.3955066 16.7495336,29.2753906 16.2729687,29.2753906 C15.7378098,29.2753906 15.1323471,29.4394515 14.4565625,29.7675781 L14.1577344,29.0234375 C14.4741422,28.8515616 14.8208184,28.7167974 15.1977734,28.6191406 C15.5747284,28.5214839 15.9526543,28.4726562 16.3315625,28.4726562 C17.0971913,28.4726562 17.6645685,28.6425764 18.0337109,28.9824219 C18.4028534,29.3222673 18.5874219,29.8671837 18.5874219,30.6171875 L18.5874219,35 L17.8667187,35 Z M15.6694531,34.3144531 C16.2749249,34.3144531 16.7505061,34.1484392 17.0962109,33.8164062 C17.4419158,33.4843733 17.6147656,33.0195342 17.6147656,32.421875 L17.6147656,31.8417969 L16.6421094,31.8828125 C15.868668,31.9101564 15.3110564,32.0302724 14.9692578,32.2431641 C14.6274592,32.4560558 14.4565625,32.7871071 14.4565625,33.2363281 C14.4565625,33.5878924 14.5630067,33.8554678 14.7758984,34.0390625 C14.9887901,34.2226572 15.2866387,34.3144531 15.6694531,34.3144531 Z M26.0871875,28.578125 L26.0871875,29.1933594 L24.8977344,29.3339844 C25.0071099,29.4707038 25.1047652,29.649413 25.1907031,29.8701172 C25.276641,30.0908214 25.3196094,30.3398424 25.3196094,30.6171875 C25.3196094,31.2460969 25.1047678,31.748045 24.6750781,32.1230469 C24.2453885,32.4980488 23.6555506,32.6855469 22.9055469,32.6855469 C22.7141397,32.6855469 22.5344539,32.669922 22.3664844,32.6386719 C21.9524198,32.857423 21.7453906,33.1328108 21.7453906,33.4648438 C21.7453906,33.6406259 21.8176555,33.7705074 21.9621875,33.8544922 C22.1067195,33.938477 22.3547639,33.9804688 22.7063281,33.9804688 L23.8430469,33.9804688 C24.5383628,33.9804688 25.0725372,34.1269517 25.4455859,34.4199219 C25.8186347,34.7128921 26.0051562,35.1386691 26.0051562,35.6972656 C26.0051562,36.4082067 25.7200028,36.9501934 25.1496875,37.3232422 C24.5793721,37.6962909 23.7473492,37.8828125 22.6535937,37.8828125 C21.8137458,37.8828125 21.1662913,37.7265641 20.7112109,37.4140625 C20.2561305,37.1015609 20.0285937,36.6601591 20.0285937,36.0898438 C20.0285937,35.6992168 20.1535925,35.3613296 20.4035937,35.0761719 C20.653595,34.7910142 21.005154,34.5976568 21.4582812,34.4960938 C21.2942179,34.4218746 21.156524,34.3066414 21.0451953,34.1503906 C20.9338666,33.9941398 20.8782031,33.812501 20.8782031,33.6054688 C20.8782031,33.3710926 20.9407025,33.1660165 21.0657031,32.9902344 C21.1907037,32.8144522 21.3879674,32.6445321 21.6575,32.4804688 C21.3254671,32.3437493 21.054962,32.1113298 20.8459765,31.7832031 C20.6369911,31.4550765 20.5325,31.0800802 20.5325,30.6582031 C20.5325,29.9550746 20.7434354,29.4130878 21.1653125,29.0322266 C21.5871896,28.6513653 22.1848399,28.4609375 22.9582812,28.4609375 C23.2942204,28.4609375 23.5969518,28.4999996 23.8664844,28.578125 L26.0871875,28.578125 Z M20.9660937,36.078125 C20.9660937,36.425783 21.1125766,36.6894522 21.4055469,36.8691406 C21.6985171,37.048829 22.1184347,37.1386719 22.6653125,37.1386719 C23.4817228,37.1386719 24.086209,37.0166028 24.478789,36.7724609 C24.8713691,36.5283191 25.0676562,36.1972677 25.0676562,35.7792969 C25.0676562,35.4316389 24.9602354,35.1904304 24.7453906,35.0556641 C24.5305458,34.9208978 24.126253,34.8535156 23.5325,34.8535156 L22.3664844,34.8535156 C21.9250759,34.8535156 21.5813293,34.9589833 21.3352344,35.1699219 C21.0891394,35.3808604 20.9660937,35.6835918 20.9660937,36.078125 Z M21.4934375,30.6347656 C21.4934375,31.0839866 21.6203893,31.423827 21.8742969,31.6542969 C22.1282044,31.8847668 22.4817165,32 22.9348437,32 C23.8840672,32 24.3586719,31.5390671 24.3586719,30.6171875 C24.3586719,29.6523389 23.8782079,29.1699219 22.9172656,29.1699219 C22.4602321,29.1699219 22.1086731,29.2929675 21.8625781,29.5390625 C21.6164831,29.7851575 21.4934375,30.1503882 21.4934375,30.6347656 Z M33.0769531,34.3144531 C33.248829,34.3144531 33.4148429,34.3017579 33.575,34.2763672 C33.735157,34.2509764 33.8621089,34.2246095 33.9558593,34.1972656 L33.9558593,34.9414062 C33.8503901,34.9921878 33.6951182,35.0341795 33.490039,35.0673828 C33.2849599,35.1005861 33.1003914,35.1171875 32.9363281,35.1171875 C31.6941344,35.1171875 31.0730468,34.4628972 31.0730468,33.1542969 L31.0730468,29.3339844 L30.153125,29.3339844 L30.153125,28.8652344 L31.0730468,28.4609375 L31.4832031,27.0898438 L32.0457031,27.0898438 L32.0457031,28.578125 L33.9089843,28.578125 L33.9089843,29.3339844 L32.0457031,29.3339844 L32.0457031,33.1132812 C32.0457031,33.5000019 32.1374991,33.796874 32.3210937,34.0039062 C32.5046884,34.2109385 32.756639,34.3144531 33.0769531,34.3144531 Z M41.0220312,31.7832031 C41.0220312,32.8300834 40.758362,33.647458 40.2310156,34.2353516 C39.7036692,34.8232451 38.9751609,35.1171875 38.0454687,35.1171875 C37.4712471,35.1171875 36.9614866,34.9824232 36.5161718,34.7128906 C36.0708571,34.443358 35.7271106,34.0566431 35.4849218,33.5527344 C35.2427331,33.0488256 35.1216406,32.4589878 35.1216406,31.7832031 C35.1216406,30.7363229 35.3833567,29.9209014 35.9067968,29.3369141 C36.430237,28.7529268 37.1567922,28.4609375 38.0864843,28.4609375 C38.9849263,28.4609375 39.6987864,28.7597626 40.2280859,29.3574219 C40.7573854,29.9550811 41.0220312,30.7636668 41.0220312,31.7832031 Z M36.1294531,31.7832031 C36.1294531,32.6035197 36.293514,33.2285135 36.6216406,33.6582031 C36.9497672,34.0878928 37.4321843,34.3027344 38.0689062,34.3027344 C38.7056282,34.3027344 39.1890218,34.0888693 39.5191015,33.6611328 C39.8491813,33.2333963 40.0142187,32.607426 40.0142187,31.7832031 C40.0142187,30.9667928 39.8491813,30.3466818 39.5191015,29.9228516 C39.1890218,29.4990213 38.7017219,29.2871094 38.0571875,29.2871094 C37.4204655,29.2871094 36.9400016,29.4960917 36.6157812,29.9140625 C36.2915608,30.3320333 36.1294531,30.955074 36.1294531,31.7832031 Z M50.7188281,35 L50.7188281,30.8457031 C50.7188281,30.322263 50.5996886,29.9316419 50.3614062,29.6738281 C50.1231238,29.4160143 49.7500806,29.2871094 49.2422656,29.2871094 C48.566481,29.2871094 48.0733218,29.4707013 47.7627734,29.8378906 C47.452225,30.20508 47.2969531,30.8066364 47.2969531,31.6425781 L47.2969531,35 L46.3242968,35 L46.3242968,25.8828125 L47.2969531,25.8828125 L47.2969531,28.6425781 C47.2969531,28.974611 47.2813282,29.2499989 47.2500781,29.46875 L47.3086718,29.46875 C47.500079,29.1601547 47.7725373,28.9169931 48.1260546,28.7392578 C48.479572,28.5615225 48.8828883,28.4726562 49.3360156,28.4726562 C50.1211758,28.4726562 50.7100371,28.6591778 51.1026171,29.0322266 C51.4951972,29.4052753 51.6914843,29.9980428 51.6914843,30.8105469 L51.6914843,35 L50.7188281,35 Z M54.9021875,35 L53.9295312,35 L53.9295312,28.578125 L54.9021875,28.578125 L54.9021875,35 Z M53.8475,26.8378906 C53.8475,26.6152333 53.9021869,26.452149 54.0115625,26.3486328 C54.120938,26.2451167 54.2576554,26.1933594 54.4217187,26.1933594 C54.5779695,26.1933594 54.7127338,26.2460932 54.8260156,26.3515625 C54.9392974,26.4570318 54.9959375,26.6191395 54.9959375,26.8378906 C54.9959375,27.0566417 54.9392974,27.219726 54.8260156,27.3271484 C54.7127338,27.4345708 54.5779695,27.4882812 54.4217187,27.4882812 C54.2576554,27.4882812 54.120938,27.4345708 54.0115625,27.3271484 C53.9021869,27.219726 53.8475,27.0566417 53.8475,26.8378906 Z M61.5757812,34.1386719 L61.5230468,34.1386719 C61.0738258,34.7910189 60.4019575,35.1171875 59.5074218,35.1171875 C58.6675739,35.1171875 58.0142601,34.830081 57.5474609,34.2558594 C57.0806617,33.6816378 56.8472656,32.8652397 56.8472656,31.8066406 C56.8472656,30.7480416 57.0816382,29.9257842 57.5503906,29.3398438 C58.0191429,28.7539033 58.6714801,28.4609375 59.5074218,28.4609375 C60.3785199,28.4609375 61.046482,28.7773406 61.5113281,29.4101562 L61.5874999,29.4101562 L61.5464843,28.9472656 L61.5230468,28.4960938 L61.5230468,25.8828125 L62.4957031,25.8828125 L62.4957031,35 L61.7046874,35 L61.5757812,34.1386719 Z M59.6304687,34.3027344 C60.2945345,34.3027344 60.775975,34.1220721 61.0748046,33.7607422 C61.3736343,33.3994123 61.5230468,32.8164103 61.5230468,32.0117188 L61.5230468,31.8066406 C61.5230468,30.8964798 61.3716811,30.2470723 61.0689453,29.8583984 C60.7662094,29.4697246 60.2828158,29.2753906 59.6187499,29.2753906 C59.0484346,29.2753906 58.6119155,29.4970681 58.3091796,29.9404297 C58.0064437,30.3837913 57.8550781,31.0097616 57.8550781,31.8183594 C57.8550781,32.638676 58.0054672,33.2578104 58.3062499,33.6757812 C58.6070327,34.0937521 59.0484345,34.3027344 59.6304687,34.3027344 Z M67.5110937,35.1171875 C66.5618702,35.1171875 65.8128542,34.8281279 65.2640234,34.25 C64.7151925,33.6718721 64.4407812,32.8691458 64.4407812,31.8417969 C64.4407812,30.8066354 64.6956615,29.984378 65.2054296,29.375 C65.7151978,28.765622 66.3997613,28.4609375 67.2591406,28.4609375 C68.0638321,28.4609375 68.7005445,28.7255833 69.1692968,29.2548828 C69.6380492,29.7841823 69.8724218,30.4824175 69.8724218,31.3496094 L69.8724218,31.9648438 L65.4485937,31.9648438 C65.468125,32.7187538 65.6585528,33.2910137 66.0198828,33.6816406 C66.3812127,34.0722676 66.8899967,34.2675781 67.5462499,34.2675781 C68.2376596,34.2675781 68.9212466,34.1230483 69.5970312,33.8339844 L69.5970312,34.7011719 C69.2532795,34.8496101 68.9280874,34.9560544 68.6214453,35.0205078 C68.3148031,35.0849613 67.9446896,35.1171875 67.5110937,35.1171875 Z M67.2474218,29.2753906 C66.7317942,29.2753906 66.3206655,29.4433577 66.0140234,29.7792969 C65.7073812,30.1152361 65.526719,30.5800752 65.4720312,31.1738281 L68.8294531,31.1738281 C68.8294531,30.5605438 68.6927357,30.0908219 68.4192968,29.7646484 C68.1458579,29.4384749 67.7552369,29.2753906 67.2474218,29.2753906 Z" id="Drag-to-hide"></path>
        </g>
    </g>
</svg>